<svg xmlns="http://www.w3.org/2000/svg" xmlns:svg="http://www.w3.org/2000/svg" xmlns:xlink="http://www.w3.org/1999/xlink" id="svg8" width="492.796" height="263.122" enable-background="new" version="1.1" viewBox="0 0 130.386 69.618"><defs id="defs2"><linearGradient id="linearGradient6236"><stop id="stop6232" offset="0" stop-color="#ff0" stop-opacity="1"/><stop id="stop6234" offset="1" stop-color="#ff0" stop-opacity="0"/></linearGradient><meshgradient id="meshgradient818" x="-65.352" y="100.944" gradientTransform="translate(-164.42213,-271.42458)" gradientUnits="userSpaceOnUse"><meshrow id="meshrow820"><meshpatch id="meshpatch822"><stop id="stop824" path="c 35.366,0 70.7319,0 106.098,0" stop-color="#ff0" stop-opacity="1"/><stop id="stop826" path="c 0,33.0729 0,66.1458 0,99.2188" stop-color="#101070" stop-opacity="1"/><stop id="stop828" path="c -35.366,0 -70.7319,0 -106.098,0" stop-color="#295aab" stop-opacity="1"/><stop id="stop830" path="c 0,-33.0729 0,-66.1458 0,-99.2188" stop-color="#e5ff80" stop-opacity="1"/></meshpatch></meshrow></meshgradient><clipPath id="clipPath1762" clipPathUnits="userSpaceOnUse"><ellipse id="ellipse1764" cx="-24.598" cy="151.633" fill="#1144a7" fill-opacity="1" stroke="none" stroke-dasharray="0 .265 .53 .795 1.06 1.325 1.59 1.855 2.12 2.385 2.65 2.915 3.18 3.445 3.71" stroke-dashoffset="0" stroke-miterlimit="4" stroke-opacity="1" stroke-width=".265" opacity=".244" rx="43.427" ry="43.127"/></clipPath><filter id="filter2753" color-interpolation-filters="sRGB"><feBlend id="feBlend2755" in2="BackgroundImage" mode="luminosity"/></filter><linearGradient id="linearGradient6252" x1="-8.416" x2="8.416" y1="0" y2="0" gradientUnits="userSpaceOnUse" xlink:href="#linearGradient6236"/></defs><metadata id="metadata5"/><g id="layer1" display="none" opacity="1" transform="translate(164.42213,271.42459)"><path id="path815" fill="url(#meshgradient818)" fill-opacity="1" stroke="none" stroke-dasharray="0 .265 .53 .795 1.06 1.325 1.59 1.855 2.12 2.385 2.65 2.915 3.18 3.445 3.71" stroke-dashoffset="0" stroke-miterlimit="4" stroke-opacity="1" stroke-width=".265" d="m 40.745832,150.55313 a 53.048958,49.609375 0 0 1 -53.048957,49.60938 53.048958,49.609375 0 0 1 -53.048958,-49.60938 53.048958,49.609375 0 0 1 53.048958,-49.60937 53.048958,49.609375 0 0 1 53.048957,49.60937 z" opacity="1"/></g><g id="layer2" display="inline" filter="url(#filter2753)" transform="translate(164.42213,271.42459)"><g id="g1744" stroke-width="1.674" clip-path="url(#clipPath1762)" opacity="1" transform="matrix(0.59721707,0,0,0.59721707,-93.296973,-318.12089)"><g id="g1445" stroke-width="1.674" opacity=".824" transform="translate(-12.435417,1.0583333)"><path id="path1064" fill="#676b48" fill-opacity=".963" stroke="none" stroke-linecap="round" stroke-linejoin="round" stroke-width=".443" d="M -6.7306165,115.29936 27.13605,120.06185 -12.022488,102.86393 Z"/><path id="path1066" fill="#aeb332" fill-opacity=".958" stroke="none" stroke-linecap="round" stroke-linejoin="round" stroke-width=".443" d="m -51.445199,120.06185 22.754166,7.67292 16.668545,-24.87084 z"/><path id="path1068" fill="#7f833e" fill-opacity=".965" stroke="none" stroke-linecap="round" stroke-linejoin="round" stroke-width=".443" d="M -28.691033,127.73477 -6.7306165,115.29936 -12.022488,102.86393 Z"/><path id="path1070" fill="#5c6351" fill-opacity=".975" stroke="none" stroke-linecap="round" stroke-linejoin="round" stroke-width=".443" d="m -3.02645,128.79311 30.1625,-8.73126 -33.8666665,-4.76249 z"/><path id="path1072" fill="#808748" fill-opacity=".965" stroke="none" stroke-linecap="round" stroke-linejoin="round" stroke-width=".443" d="m -28.691033,127.73477 25.664583,1.05834 -3.7041665,-13.49375 z"/><path id="path1074" fill="#556163" fill-opacity=".964" stroke="none" stroke-linecap="round" stroke-linejoin="round" stroke-width=".443" d="m 11.26105,141.75769 15.875,-21.69584 -30.1625,8.73126 z"/><path id="path1076" fill="#89934a" fill-opacity=".977" stroke="none" stroke-linecap="round" stroke-linejoin="round" stroke-width=".443" d="M -16.255616,145.72643 -3.02645,128.79311 -28.691033,127.73477 Z"/><path id="path1078" fill="#c3cc39" fill-opacity=".964" stroke="none" stroke-linecap="round" stroke-linejoin="round" stroke-width=".443" d="m -51.445199,120.06185 12.435416,30.1625 10.31875,-22.48958 z"/><path id="path1080" fill="#384875" fill-opacity=".962" stroke="none" stroke-linecap="round" stroke-linejoin="round" stroke-width=".443" d="M 11.26105,141.75769 38.893752,150.55313 27.13605,120.06185 Z"/><path id="path1082" fill="#a7b44c" fill-opacity=".962" stroke="none" stroke-linecap="round" stroke-linejoin="round" stroke-width=".443" d="m -39.009783,150.22435 22.754167,-4.49792 -12.435417,-17.99166 z"/><path id="path1084" fill="#d8e33a" fill-opacity=".961" stroke="none" stroke-linecap="round" stroke-linejoin="round" stroke-width=".443" d="m -63.219366,150.22435 h 24.209583 l -12.435416,-30.1625 z"/><path id="path1086" fill="#738261" fill-opacity=".961" stroke="none" stroke-linecap="round" stroke-linejoin="round" stroke-width=".443" d="M -16.255616,145.72643 11.26105,141.75769 -3.02645,128.79311 Z"/><path id="path1088" fill="#667867" fill-opacity=".974" stroke="none" stroke-linecap="round" stroke-linejoin="round" stroke-width=".443" d="M -16.255616,145.72643 8.8798,162.39519 11.26105,141.75769 Z"/><path id="path1090" fill="#4a5e72" fill-opacity=".973" stroke="none" stroke-linecap="round" stroke-linejoin="round" stroke-width=".443" d="M 8.8798,162.39519 38.893752,150.55313 11.26105,141.75769 Z"/><path id="path1092" fill="#304a83" fill-opacity=".966" stroke="none" stroke-linecap="round" stroke-linejoin="round" stroke-width=".443" d="m 8.8798,162.39519 18.76916,17.89812 11.244792,-29.74018 z"/><path id="path1094" fill="#d7e750" fill-opacity=".961" stroke="none" stroke-linecap="round" stroke-linejoin="round" stroke-width=".443" d="m -51.445199,180.91602 12.435416,-30.69167 h -24.209583 z"/><path id="path1096" fill="#7d936e" fill-opacity=".964" stroke="none" stroke-linecap="round" stroke-linejoin="round" stroke-width=".443" d="M -15.197283,180.91602 8.8798,162.39519 -16.255616,145.72643 Z"/><path id="path1098" fill="#a6b75a" fill-opacity=".964" stroke="none" stroke-linecap="round" stroke-linejoin="round" stroke-width=".443" d="m -32.395201,180.12228 16.139585,-34.39585 -22.754167,4.49792 z"/><path id="path1100" fill="#8ca168" fill-opacity=".97" stroke="none" stroke-linecap="round" stroke-linejoin="round" stroke-width=".443" d="m -32.395201,180.12228 17.197918,0.79374 -1.058333,-35.18959 z"/><path id="path1102" fill="#bed261" fill-opacity=".962" stroke="none" stroke-linecap="round" stroke-linejoin="round" stroke-width=".443" d="m -51.445199,180.91602 19.049998,-0.79374 -6.614582,-29.89793 z"/><path id="path1104" fill="#708c7d" fill-opacity=".969" stroke="none" stroke-linecap="round" stroke-linejoin="round" stroke-width=".443" d="M -15.197283,180.91602 6.2339665,185.14936 8.8798,162.39519 Z"/><path id="path1106" fill="#5a7a8b" fill-opacity=".961" stroke="none" stroke-linecap="round" stroke-linejoin="round" stroke-width=".443" d="M 6.2339665,185.14936 27.64896,180.29331 8.8798,162.39519 Z"/><path id="path1108" fill="#789a8a" fill-opacity=".964" stroke="none" stroke-linecap="round" stroke-linejoin="round" stroke-width=".443" d="M -12.022488,198.28498 6.2339665,185.14936 -15.197283,180.91602 Z"/><path id="path1110" fill="#8daa7d" fill-opacity=".963" stroke="none" stroke-linecap="round" stroke-linejoin="round" stroke-width=".443" d="m -32.395201,180.12228 20.372713,18.1627 -3.174795,-17.36896 z"/><path id="path1112" fill="#a1ba70" fill-opacity=".967" stroke="none" stroke-linecap="round" stroke-linejoin="round" stroke-width=".443" d="m -51.445199,180.91602 39.422711,17.36896 -20.372713,-18.1627 z"/><path id="path1114" fill="#587a88" fill-opacity=".956" stroke="none" stroke-linecap="round" stroke-linejoin="round" stroke-width=".443" d="M -12.022488,198.28498 27.64896,180.29331 6.2339665,185.14936 Z"/></g><g id="g1607" stroke-width="1.674" opacity=".824" transform="translate(-12.435417,1.0583333)"><path id="path1555" fill="#676b48" fill-opacity=".963" stroke="none" stroke-linecap="round" stroke-linejoin="round" stroke-width=".443" d="M -6.7306165,115.29936 27.13605,120.06185 -12.022488,102.86393 Z"/><path id="path1557" fill="#aeb332" fill-opacity=".958" stroke="none" stroke-linecap="round" stroke-linejoin="round" stroke-width=".443" d="m -51.445199,120.06185 22.754166,7.67292 16.668545,-24.87084 z"/><path id="path1559" fill="#7f833e" fill-opacity=".965" stroke="none" stroke-linecap="round" stroke-linejoin="round" stroke-width=".443" d="M -28.691033,127.73477 -6.7306165,115.29936 -12.022488,102.86393 Z"/><path id="path1561" fill="#5c6351" fill-opacity=".975" stroke="none" stroke-linecap="round" stroke-linejoin="round" stroke-width=".443" d="m -3.02645,128.79311 30.1625,-8.73126 -33.8666665,-4.76249 z"/><path id="path1563" fill="#808748" fill-opacity=".965" stroke="none" stroke-linecap="round" stroke-linejoin="round" stroke-width=".443" d="m -28.691033,127.73477 25.664583,1.05834 -3.7041665,-13.49375 z"/><path id="path1565" fill="#556163" fill-opacity=".964" stroke="none" stroke-linecap="round" stroke-linejoin="round" stroke-width=".443" d="m 11.26105,141.75769 15.875,-21.69584 -30.1625,8.73126 z"/><path id="path1567" fill="#89934a" fill-opacity=".977" stroke="none" stroke-linecap="round" stroke-linejoin="round" stroke-width=".443" d="M -16.255616,145.72643 -3.02645,128.79311 -28.691033,127.73477 Z"/><path id="path1569" fill="#c3cc39" fill-opacity=".964" stroke="none" stroke-linecap="round" stroke-linejoin="round" stroke-width=".443" d="m -51.445199,120.06185 12.435416,30.1625 10.31875,-22.48958 z"/><path id="path1571" fill="#384875" fill-opacity=".962" stroke="none" stroke-linecap="round" stroke-linejoin="round" stroke-width=".443" d="M 11.26105,141.75769 38.893752,150.55313 27.13605,120.06185 Z"/><path id="path1573" fill="#a7b44c" fill-opacity=".962" stroke="none" stroke-linecap="round" stroke-linejoin="round" stroke-width=".443" d="m -39.009783,150.22435 22.754167,-4.49792 -12.435417,-17.99166 z"/><path id="path1575" fill="#d8e33a" fill-opacity=".961" stroke="none" stroke-linecap="round" stroke-linejoin="round" stroke-width=".443" d="m -63.219366,150.22435 h 24.209583 l -12.435416,-30.1625 z"/><path id="path1577" fill="#738261" fill-opacity=".961" stroke="none" stroke-linecap="round" stroke-linejoin="round" stroke-width=".443" d="M -16.255616,145.72643 11.26105,141.75769 -3.02645,128.79311 Z"/><path id="path1579" fill="#667867" fill-opacity=".974" stroke="none" stroke-linecap="round" stroke-linejoin="round" stroke-width=".443" d="M -16.255616,145.72643 8.8798,162.39519 11.26105,141.75769 Z"/><path id="path1581" fill="#4a5e72" fill-opacity=".973" stroke="none" stroke-linecap="round" stroke-linejoin="round" stroke-width=".443" d="M 8.8798,162.39519 38.893752,150.55313 11.26105,141.75769 Z"/><path id="path1583" fill="#304a83" fill-opacity=".966" stroke="none" stroke-linecap="round" stroke-linejoin="round" stroke-width=".443" d="m 8.8798,162.39519 18.76916,17.89812 11.244792,-29.74018 z"/><path id="path1585" fill="#d7e750" fill-opacity=".961" stroke="none" stroke-linecap="round" stroke-linejoin="round" stroke-width=".443" d="m -51.445199,180.91602 12.435416,-30.69167 h -24.209583 z"/><path id="path1587" fill="#7d936e" fill-opacity=".964" stroke="none" stroke-linecap="round" stroke-linejoin="round" stroke-width=".443" d="M -15.197283,180.91602 8.8798,162.39519 -16.255616,145.72643 Z"/><path id="path1589" fill="#a6b75a" fill-opacity=".964" stroke="none" stroke-linecap="round" stroke-linejoin="round" stroke-width=".443" d="m -32.395201,180.12228 16.139585,-34.39585 -22.754167,4.49792 z"/><path id="path1591" fill="#8ca168" fill-opacity=".97" stroke="none" stroke-linecap="round" stroke-linejoin="round" stroke-width=".443" d="m -32.395201,180.12228 17.197918,0.79374 -1.058333,-35.18959 z"/><path id="path1593" fill="#bed261" fill-opacity=".962" stroke="none" stroke-linecap="round" stroke-linejoin="round" stroke-width=".443" d="m -51.445199,180.91602 19.049998,-0.79374 -6.614582,-29.89793 z"/><path id="path1595" fill="#708c7d" fill-opacity=".969" stroke="none" stroke-linecap="round" stroke-linejoin="round" stroke-width=".443" d="M -15.197283,180.91602 6.2339665,185.14936 8.8798,162.39519 Z"/><path id="path1597" fill="#5a7a8b" fill-opacity=".961" stroke="none" stroke-linecap="round" stroke-linejoin="round" stroke-width=".443" d="M 6.2339665,185.14936 27.64896,180.29331 8.8798,162.39519 Z"/><path id="path1599" fill="#789a8a" fill-opacity=".964" stroke="none" stroke-linecap="round" stroke-linejoin="round" stroke-width=".443" d="M -12.022488,198.28498 6.2339665,185.14936 -15.197283,180.91602 Z"/><path id="path1601" fill="#8daa7d" fill-opacity=".963" stroke="none" stroke-linecap="round" stroke-linejoin="round" stroke-width=".443" d="m -32.395201,180.12228 20.372713,18.1627 -3.174795,-17.36896 z"/><path id="path1603" fill="#a1ba70" fill-opacity=".967" stroke="none" stroke-linecap="round" stroke-linejoin="round" stroke-width=".443" d="m -51.445199,180.91602 39.422711,17.36896 -20.372713,-18.1627 z"/><path id="path1605" fill="#587a88" fill-opacity=".956" stroke="none" stroke-linecap="round" stroke-linejoin="round" stroke-width=".443" d="M -12.022488,198.28498 27.64896,180.29331 6.2339665,185.14936 Z"/></g><g id="g1661" stroke-width="1.674" opacity=".244" transform="translate(-12.435417,1.0583333)"><path id="path1609" fill="#676b48" fill-opacity=".963" stroke="none" stroke-linecap="round" stroke-linejoin="round" stroke-width=".443" d="M -6.7306165,115.29936 27.13605,120.06185 -12.022488,102.86393 Z"/><path id="path1611" fill="#aeb332" fill-opacity=".958" stroke="none" stroke-linecap="round" stroke-linejoin="round" stroke-width=".443" d="m -51.445199,120.06185 22.754166,7.67292 16.668545,-24.87084 z"/><path id="path1613" fill="#7f833e" fill-opacity=".965" stroke="none" stroke-linecap="round" stroke-linejoin="round" stroke-width=".443" d="M -28.691033,127.73477 -6.7306165,115.29936 -12.022488,102.86393 Z"/><path id="path1615" fill="#5c6351" fill-opacity=".975" stroke="none" stroke-linecap="round" stroke-linejoin="round" stroke-width=".443" d="m -3.02645,128.79311 30.1625,-8.73126 -33.8666665,-4.76249 z"/><path id="path1617" fill="#808748" fill-opacity=".965" stroke="none" stroke-linecap="round" stroke-linejoin="round" stroke-width=".443" d="m -28.691033,127.73477 25.664583,1.05834 -3.7041665,-13.49375 z"/><path id="path1619" fill="#556163" fill-opacity=".964" stroke="none" stroke-linecap="round" stroke-linejoin="round" stroke-width=".443" d="m 11.26105,141.75769 15.875,-21.69584 -30.1625,8.73126 z"/><path id="path1621" fill="#89934a" fill-opacity=".977" stroke="none" stroke-linecap="round" stroke-linejoin="round" stroke-width=".443" d="M -16.255616,145.72643 -3.02645,128.79311 -28.691033,127.73477 Z"/><path id="path1623" fill="#c3cc39" fill-opacity=".964" stroke="none" stroke-linecap="round" stroke-linejoin="round" stroke-width=".443" d="m -51.445199,120.06185 12.435416,30.1625 10.31875,-22.48958 z"/><path id="path1625" fill="#384875" fill-opacity=".962" stroke="none" stroke-linecap="round" stroke-linejoin="round" stroke-width=".443" d="M 11.26105,141.75769 38.893752,150.55313 27.13605,120.06185 Z"/><path id="path1627" fill="#a7b44c" fill-opacity=".962" stroke="none" stroke-linecap="round" stroke-linejoin="round" stroke-width=".443" d="m -39.009783,150.22435 22.754167,-4.49792 -12.435417,-17.99166 z"/><path id="path1629" fill="#d8e33a" fill-opacity=".961" stroke="none" stroke-linecap="round" stroke-linejoin="round" stroke-width=".443" d="m -63.219366,150.22435 h 24.209583 l -12.435416,-30.1625 z"/><path id="path1631" fill="#738261" fill-opacity=".961" stroke="none" stroke-linecap="round" stroke-linejoin="round" stroke-width=".443" d="M -16.255616,145.72643 11.26105,141.75769 -3.02645,128.79311 Z"/><path id="path1633" fill="#667867" fill-opacity=".974" stroke="none" stroke-linecap="round" stroke-linejoin="round" stroke-width=".443" d="M -16.255616,145.72643 8.8798,162.39519 11.26105,141.75769 Z"/><path id="path1635" fill="#4a5e72" fill-opacity=".973" stroke="none" stroke-linecap="round" stroke-linejoin="round" stroke-width=".443" d="M 8.8798,162.39519 38.893752,150.55313 11.26105,141.75769 Z"/><path id="path1637" fill="#304a83" fill-opacity=".966" stroke="none" stroke-linecap="round" stroke-linejoin="round" stroke-width=".443" d="m 8.8798,162.39519 18.76916,17.89812 11.244792,-29.74018 z"/><path id="path1639" fill="#d7e750" fill-opacity=".961" stroke="none" stroke-linecap="round" stroke-linejoin="round" stroke-width=".443" d="m -51.445199,180.91602 12.435416,-30.69167 h -24.209583 z"/><path id="path1641" fill="#7d936e" fill-opacity=".964" stroke="none" stroke-linecap="round" stroke-linejoin="round" stroke-width=".443" d="M -15.197283,180.91602 8.8798,162.39519 -16.255616,145.72643 Z"/><path id="path1643" fill="#a6b75a" fill-opacity=".964" stroke="none" stroke-linecap="round" stroke-linejoin="round" stroke-width=".443" d="m -32.395201,180.12228 16.139585,-34.39585 -22.754167,4.49792 z"/><path id="path1645" fill="#8ca168" fill-opacity=".97" stroke="none" stroke-linecap="round" stroke-linejoin="round" stroke-width=".443" d="m -32.395201,180.12228 17.197918,0.79374 -1.058333,-35.18959 z"/><path id="path1647" fill="#bed261" fill-opacity=".962" stroke="none" stroke-linecap="round" stroke-linejoin="round" stroke-width=".443" d="m -51.445199,180.91602 19.049998,-0.79374 -6.614582,-29.89793 z"/><path id="path1649" fill="#708c7d" fill-opacity=".969" stroke="none" stroke-linecap="round" stroke-linejoin="round" stroke-width=".443" d="M -15.197283,180.91602 6.2339665,185.14936 8.8798,162.39519 Z"/><path id="path1651" fill="#5a7a8b" fill-opacity=".961" stroke="none" stroke-linecap="round" stroke-linejoin="round" stroke-width=".443" d="M 6.2339665,185.14936 27.64896,180.29331 8.8798,162.39519 Z"/><path id="path1653" fill="#789a8a" fill-opacity=".964" stroke="none" stroke-linecap="round" stroke-linejoin="round" stroke-width=".443" d="M -12.022488,198.28498 6.2339665,185.14936 -15.197283,180.91602 Z"/><path id="path1655" fill="#8daa7d" fill-opacity=".963" stroke="none" stroke-linecap="round" stroke-linejoin="round" stroke-width=".443" d="m -32.395201,180.12228 20.372713,18.1627 -3.174795,-17.36896 z"/><path id="path1657" fill="#a1ba70" fill-opacity=".967" stroke="none" stroke-linecap="round" stroke-linejoin="round" stroke-width=".443" d="m -51.445199,180.91602 39.422711,17.36896 -20.372713,-18.1627 z"/><path id="path1659" fill="#587a88" fill-opacity=".956" stroke="none" stroke-linecap="round" stroke-linejoin="round" stroke-width=".443" d="M -12.022488,198.28498 27.64896,180.29331 6.2339665,185.14936 Z"/></g></g><text id="text1075" x="-166.842" y="-203.127" fill="#000" fill-opacity="1" stroke="none" stroke-width=".577" font-family="monospace" font-size="122.2" font-stretch="normal" font-style="normal" font-variant="normal" font-weight="normal" letter-spacing="0" opacity="1" word-spacing="0" xml:space="preserve" style="line-height:1.25;-inkscape-font-specification:monospace"><tspan id="tspan1073" x="-166.842" y="-203.127" stroke-width=".577"><tspan id="tspan1071" x="-166.842" y="-203.127" stroke-width=".577" font-family="URW Palladio L" font-size="109.98" font-stretch="normal" font-style="normal" font-variant="normal" font-weight="normal" style="line-height:.25;-inkscape-font-specification:'URW Palladio L'">t</tspan></tspan></text><text id="text1081" x="-88.587" y="-202.137" fill="#000" fill-opacity="1" stroke="none" stroke-width=".577" font-family="monospace" font-size="122.2" font-stretch="normal" font-style="normal" font-variant="normal" font-weight="normal" letter-spacing="0" opacity="1" word-spacing="0" xml:space="preserve" style="line-height:1.25;-inkscape-font-specification:monospace"><tspan id="tspan1079" x="-88.587" y="-202.137" stroke-width=".577"><tspan id="tspan1077" x="-88.587" y="-202.137" stroke-width=".577" font-family="URW Palladio L" font-size="109.98" font-stretch="normal" font-style="normal" font-variant="normal" font-weight="normal" style="-inkscape-font-specification:'URW Palladio L'">x</tspan></tspan></text></g></svg>